<?xml version="1.0" encoding="UTF-8"?>
<!DOCTYPE svg PUBLIC "-//W3C//DTD SVG 1.1//EN" "http://www.w3.org/Graphics/SVG/1.1/DTD/svg11.dtd">
<svg xmlns="http://www.w3.org/2000/svg" version="1.1" width="2048px" height="2048px" style="shape-rendering:geometricPrecision; text-rendering:geometricPrecision; image-rendering:optimizeQuality; fill-rule:evenodd; clip-rule:evenodd" xmlns:xlink="http://www.w3.org/1999/xlink">
<g><path style="opacity:1" fill="#fefffe" d="M -0.5,-0.5 C 682.167,-0.5 1364.83,-0.5 2047.5,-0.5C 2047.5,682.167 2047.5,1364.83 2047.5,2047.5C 1364.83,2047.5 682.167,2047.5 -0.5,2047.5C -0.5,1364.83 -0.5,682.167 -0.5,-0.5 Z"/></g>
<g><path style="opacity:1" fill="#d52020" d="M 33.5,33.5 C 693.5,33.5 1353.5,33.5 2013.5,33.5C 2013.5,693.5 2013.5,1353.5 2013.5,2013.5C 1353.5,2013.5 693.5,2013.5 33.5,2013.5C 33.5,1353.5 33.5,693.5 33.5,33.5 Z"/></g>
<g><path style="opacity:1" fill="#d00000" d="M 34.5,34.5 C 693.833,34.5 1353.17,34.5 2012.5,34.5C 2012.5,693.833 2012.5,1353.17 2012.5,2012.5C 1353.17,2012.5 693.833,2012.5 34.5,2012.5C 34.5,1353.17 34.5,693.833 34.5,34.5 Z"/></g>
<g><path style="opacity:1" fill="#fefefe" d="M 612.5,430.5 C 652.835,430.333 693.168,430.5 733.5,431C 746.342,443.176 758.509,456.009 770,469.5C 770.001,623.973 770.668,778.306 772,932.5C 938.167,765.667 1104.33,598.833 1270.5,432C 1298.92,430.841 1327.42,430.341 1356,430.5C 1383.83,430.667 1411.67,430.833 1439.5,431C 1448.57,449.865 1457.07,469.032 1465,488.5C 1465.88,493.287 1465.55,497.953 1464,502.5C 1330.33,635.5 1196.67,768.5 1063,901.5C 1062.29,903.971 1062.63,906.305 1064,908.5C 1208.33,1117.5 1352.67,1326.5 1497,1535.5C 1498.3,1537.36 1498.63,1539.36 1498,1541.5C 1488.31,1561.83 1477.81,1581.67 1466.5,1601C 1410.17,1601.67 1353.83,1601.67 1297.5,1601C 1173.3,1418.09 1049.46,1234.93 926,1051.5C 924.66,1050.13 923.326,1048.8 922,1047.5C 918.178,1050.65 914.345,1053.82 910.5,1057C 863.643,1101.52 817.143,1146.36 771,1191.5C 770.667,1315.83 770.333,1440.17 770,1564.5C 758.5,1577.33 746.333,1589.5 733.5,1601C 692.833,1601.67 652.167,1601.67 611.5,1601C 599.362,1589.86 587.529,1578.36 576,1566.5C 574.335,1201.25 574.001,835.913 575,470.5C 587.028,456.642 599.528,443.308 612.5,430.5 Z"/></g>
</svg>
