<?xml version="1.0" standalone="no"?>
<!DOCTYPE svg PUBLIC "-//W3C//DTD SVG 20010904//EN"
 "http://www.w3.org/TR/2001/REC-SVG-20010904/DTD/svg10.dtd">
<svg version="1.0" xmlns="http://www.w3.org/2000/svg"
 width="3000.000000pt" height="2000.000000pt" viewBox="0 0 3000.000000 2000.000000"
 preserveAspectRatio="xMidYMid meet">

<g transform="translate(0.000000,2000.000000) scale(0.100000,-0.100000)"
fill="#000000" stroke="none">
<path d="M22270 12928 c-218 -83 -362 -274 -485 -642 -24 -73 -87 -294 -140
-492 -53 -197 -107 -383 -121 -412 -33 -67 -67 -95 -394 -314 -347 -234 -590
-403 -745 -519 -617 -462 -1210 -1115 -1440 -1584 -70 -142 -117 -287 -149
-455 -15 -74 -38 -186 -52 -247 -36 -151 -31 -221 20 -316 20 -38 36 -74 36
-81 0 -21 39 -65 79 -90 64 -40 131 -58 246 -63 132 -6 218 8 444 74 236 69
287 80 531 113 431 58 703 116 915 195 107 40 307 133 339 157 19 15 18 17
-25 43 -136 85 -272 180 -294 206 -44 53 -28 134 34 178 16 12 89 41 163 65
171 55 225 83 441 228 408 271 494 283 966 126 314 -104 297 -104 611 15 492
186 750 236 1080 208 146 -12 233 -35 368 -94 306 -135 562 -356 768 -664 115
-171 274 -515 274 -591 0 -17 -5 -23 -17 -20 -12 2 -44 63 -98 183 -90 198
-138 296 -166 336 l-19 27 -67 -67 c-57 -57 -91 -79 -213 -141 -177 -89 -260
-142 -322 -206 -89 -93 -127 -225 -108 -375 11 -95 23 -119 55 -119 17 0 36
16 69 59 50 65 85 83 141 74 24 -4 49 0 75 12 39 17 41 17 60 0 17 -16 25 -17
59 -7 56 17 103 15 156 -8 94 -40 141 -25 211 71 l38 52 13 -63 c25 -124 68
-158 294 -236 160 -54 206 -80 250 -136 18 -24 61 -73 96 -110 64 -67 93 -118
93 -161 0 -13 5 -38 11 -56 9 -26 16 -32 37 -29 35 4 64 49 96 146 39 121 50
196 50 357 0 111 -4 167 -17 214 -21 77 -83 212 -128 278 -47 69 -170 194
-270 274 l-86 68 -48 173 c-260 935 -661 1657 -1154 2080 -201 173 -389 295
-646 422 -349 173 -711 293 -1225 406 -314 70 -381 92 -436 142 -58 54 -111
161 -129 263 -17 97 -19 355 -4 497 10 93 32 211 85 455 18 79 18 82 0 102
-26 29 -129 28 -206 -1z m2115 -2988 c135 -23 293 -73 412 -130 198 -96 396
-264 505 -430 57 -87 95 -166 85 -177 -4 -3 -27 12 -52 33 -25 21 -72 61 -103
87 -198 168 -448 284 -637 294 -82 5 -92 3 -112 -16 -13 -12 -23 -28 -23 -35
0 -17 54 -46 188 -100 253 -103 364 -179 469 -320 75 -101 57 -101 -97 0 -204
134 -430 232 -640 279 -118 26 -366 31 -491 10 -204 -34 -477 -125 -757 -252
-92 -41 -180 -78 -197 -80 -34 -5 -148 34 -140 48 4 5 49 40 101 79 52 39 167
134 256 213 224 198 290 251 393 320 148 98 291 162 416 186 85 17 300 12 424
-9z m-3358 -671 c57 -11 116 -46 121 -71 2 -10 -14 -36 -36 -60 -22 -24 -65
-84 -96 -135 -62 -101 -115 -154 -191 -189 -105 -48 -468 -144 -548 -144 -92
0 -109 91 -42 228 30 61 58 96 129 167 50 50 117 105 149 124 151 88 325 115
514 80z m-773 -695 c9 -3 16 -17 16 -30 0 -49 -141 -103 -185 -71 -58 44 89
132 169 101z m653 -130 c60 -53 138 -117 175 -142 37 -24 65 -49 62 -54 -11
-17 -135 -68 -249 -103 -155 -47 -258 -67 -693 -140 -211 -36 -434 -78 -495
-95 -62 -16 -168 -45 -237 -63 -212 -58 -406 -71 -478 -33 l-27 14 25 10 c14
5 72 15 130 21 132 13 192 33 319 106 136 77 191 99 351 136 475 111 539 136
785 304 126 86 200 131 222 135 2 0 51 -43 110 -96z m4905 -101 c128 -65 316
-225 405 -343 52 -70 106 -177 128 -255 18 -64 32 -305 21 -349 -10 -40 -33
-31 -52 22 -24 60 -84 120 -155 154 -31 14 -123 47 -205 73 -195 62 -257 94
-284 149 -17 37 -28 96 -16 96 2 0 24 -9 49 -20 50 -22 78 -18 111 19 29 32
22 85 -34 251 -50 148 -63 230 -36 230 7 0 38 -12 68 -27z m-338 -50 c31 -63
156 -352 156 -362 0 -5 -11 -8 -24 -8 -14 0 -48 -18 -77 -38 -35 -26 -68 -41
-103 -46 -67 -11 -201 5 -305 36 l-83 24 -41 -21 c-23 -11 -53 -29 -66 -39
-41 -33 -91 -19 -91 24 0 70 81 142 330 297 91 57 188 120 215 141 28 21 53
39 57 39 4 0 18 -21 32 -47z"/>
<path d="M3707 11500 c-98 -17 -178 -87 -219 -190 -21 -53 -22 -71 -26 -452
l-4 -398 121 0 121 0 0 165 0 165 405 0 405 0 0 -165 0 -165 120 0 120 0 0
394 c0 441 -2 453 -69 542 -25 33 -56 59 -96 79 l-59 30 -385 2 c-212 1 -407
-2 -434 -7z m783 -250 c17 -17 20 -33 20 -120 l0 -100 -402 2 -403 3 0 98 c0
148 -31 137 406 137 346 0 360 -1 379 -20z"/>
<path d="M6227 11504 c-4 -4 -7 -241 -7 -526 l0 -518 120 0 120 0 2 168 3 167
430 5 430 5 47 27 c61 36 113 98 140 167 17 44 22 77 22 156 1 89 -2 107 -26
158 -41 86 -81 132 -146 164 l-57 28 -535 3 c-295 2 -539 0 -543 -4z m1043
-252 c46 -37 36 -195 -13 -207 -12 -3 -195 -4 -407 -3 l-385 3 -3 99 c-1 55 0
106 2 113 4 10 81 13 395 13 362 0 390 -1 411 -18z"/>
<path d="M9259 11500 c-70 -12 -115 -37 -163 -91 -80 -89 -80 -90 -84 -546
l-3 -403 120 0 121 0 0 165 0 165 405 0 405 0 0 -165 0 -165 121 0 120 0 -3
408 -3 407 -28 57 c-32 66 -107 138 -163 158 -30 10 -127 14 -419 16 -209 1
-401 -1 -426 -6z m783 -248 c9 -8 14 -49 16 -117 l4 -105 -406 0 -406 0 0 90
c0 93 12 136 39 144 9 2 179 3 378 3 282 -2 365 -5 375 -15z"/>
<path d="M12055 11500 c-27 -5 -67 -16 -89 -25 -57 -24 -140 -108 -167 -168
-23 -50 -24 -60 -24 -322 0 -242 2 -275 19 -320 24 -62 95 -139 161 -173 l50
-27 463 -3 462 -3 0 116 0 115 -402 0 c-222 0 -421 5 -442 10 -71 16 -71 14
-74 268 -3 253 1 269 58 289 25 8 155 12 448 12 l412 1 0 120 0 120 -412 -1
c-227 -1 -435 -5 -463 -9z"/>
<path d="M14400 10985 l0 -525 120 0 120 0 0 200 0 200 320 0 320 0 0 -200 0
-200 120 0 120 0 0 525 0 525 -120 0 -120 0 0 -205 0 -205 -320 0 -320 0 0
205 0 205 -120 0 -120 0 0 -525z"/>
<path d="M16990 10985 l0 -525 560 0 560 0 0 115 0 115 -437 2 -438 3 -3 83
-3 82 411 0 410 0 0 120 0 120 -410 0 -410 0 0 85 0 85 440 0 440 0 0 120 0
120 -560 0 -560 0 0 -525z"/>
<path d="M19988 10779 c-88 -48 -179 -129 -248 -220 -73 -97 -160 -271 -190
-379 -32 -121 -46 -320 -22 -320 3 0 87 80 186 178 191 188 286 273 428 386
l87 68 -24 47 c-13 25 -36 87 -51 138 -42 142 -65 156 -166 102z"/>
<path d="M3462 9038 l3 -1153 268 -3 267 -2 0 445 0 445 880 0 880 0 0 -445 0
-445 270 0 270 0 0 1155 0 1155 -270 0 -270 0 0 -440 0 -440 -880 0 -880 0 0
440 0 440 -270 0 -270 0 2 -1152z"/>
<path d="M6530 9035 l0 -1155 1113 0 c668 0 1146 4 1198 10 123 14 207 43 294
101 122 82 212 210 252 360 22 86 22 261 -1 348 -34 128 -108 241 -201 307
-30 21 -54 42 -55 46 0 3 18 20 40 38 55 43 135 168 161 248 29 93 36 262 15
362 -38 183 -157 340 -317 418 -149 74 -116 72 -1380 72 l-1119 0 0 -1155z
m2248 599 c12 -8 30 -30 39 -47 22 -42 22 -168 0 -219 -30 -72 20 -68 -917
-68 l-840 0 0 175 0 175 848 0 c752 0 850 -2 870 -16z m40 -880 c40 -28 56
-73 56 -159 0 -55 -6 -90 -17 -112 -36 -67 29 -63 -929 -63 l-868 0 0 175 0
175 868 0 c770 0 870 -2 890 -16z"/>
<path d="M10166 10180 c-133 -23 -233 -75 -327 -170 -78 -79 -137 -174 -176
-285 l-28 -80 -3 -882 -3 -883 266 0 265 0 0 370 0 370 875 0 875 0 2 -367 3
-368 268 -3 268 -2 -3 867 -4 868 -22 75 c-73 236 -239 414 -447 476 -55 17
-126 18 -910 20 -467 1 -872 -2 -899 -6z m1693 -546 c44 -31 51 -68 51 -284
l0 -200 -875 0 -875 0 0 188 c0 200 8 251 45 288 l24 24 803 0 c727 0 806 -2
827 -16z"/>
<path d="M13228 10180 c-201 -34 -372 -168 -468 -365 -205 -422 18 -943 442
-1029 66 -14 187 -16 845 -16 853 0 800 4 829 -66 18 -43 18 -175 0 -218 -30
-71 51 -66 -1073 -66 l-1013 0 2 -267 3 -268 1040 0 c1154 0 1089 -3 1235 67
98 47 223 177 278 288 59 121 76 199 76 355 0 156 -17 234 -76 355 -55 111
-180 241 -278 288 -142 68 -103 66 -970 69 -432 2 -795 5 -808 8 -78 18 -96
239 -25 309 l26 26 1013 0 1014 0 0 270 0 270 -1022 -1 c-563 -1 -1044 -5
-1070 -9z"/>
<path d="M15660 9035 l0 -1155 1225 0 1225 0 0 270 0 270 -960 0 -960 0 0 175
0 175 900 0 900 0 -2 268 -3 267 -897 3 -898 2 0 170 0 170 960 0 960 0 0 270
0 270 -1225 0 -1225 0 0 -1155z"/>
<path d="M22108 9124 c-85 -20 -177 -70 -392 -213 -228 -151 -285 -180 -425
-216 -147 -37 -190 -61 -206 -113 -23 -77 361 -293 683 -386 243 -70 431 -89
739 -76 283 12 456 51 679 155 231 107 424 284 424 389 0 34 -3 38 -46 56
-165 71 -1075 381 -1189 405 -86 18 -191 18 -267 -1z"/>
</g>
</svg>
