<?xml version="1.0" encoding="UTF-8"?>
<svg version="1.1" xmlns="http://www.w3.org/2000/svg" width="300" height="300">
<path d="M0 0 C0.77103058 -0.00570007 1.54206116 -0.01140015 2.3364563 -0.01727295 C3.9651759 -0.02667458 5.59391411 -0.03323756 7.22265625 -0.03710938 C9.65400797 -0.04671187 12.08447475 -0.07773742 14.515625 -0.109375 C49.84089851 -0.34893155 85.25093337 13.35274434 111.23046875 37.4375 C113.13112453 39.3274979 114.98355924 41.25129804 116.8203125 43.203125 C118.026875 44.37875 118.026875 44.37875 119.2578125 45.578125 C120.1034375 46.444375 120.9490625 47.310625 121.8203125 48.203125 C122.46484375 48.863125 123.109375 49.523125 123.7734375 50.203125 C143.34518088 71.00665642 154.58338913 97.41364451 159.8203125 125.203125 C159.9961084 126.10595215 160.1719043 127.0087793 160.35302734 127.93896484 C160.89587454 131.73095385 161.00103308 135.46294589 161.0234375 139.28515625 C161.02913757 140.05760178 161.03483765 140.8300473 161.04071045 141.62590027 C161.05012528 143.26059621 161.05668039 144.89531082 161.06054688 146.5300293 C161.07013424 148.97025222 161.10113998 151.40958792 161.1328125 153.84960938 C161.37077479 189.03479856 147.86506663 221.19830119 125.8203125 248.203125 C125.19125 248.97527344 124.5621875 249.74742187 123.9140625 250.54296875 C119.93223528 255.25781416 115.54439816 259.24751218 110.8203125 263.203125 C109.923125 263.98816406 109.0259375 264.77320313 108.1015625 265.58203125 C84.90729092 285.57183109 52.63155177 300.2232899 21.640625 300.40625 C20.86959442 300.41195007 20.09856384 300.41765015 19.3041687 300.42352295 C17.6754491 300.43292458 16.04671089 300.43948756 14.41796875 300.44335938 C11.98661703 300.45296187 9.55615025 300.48398742 7.125 300.515625 C-28.20027351 300.75518155 -63.61030837 287.05350566 -89.58984375 262.96875 C-91.49049953 261.0787521 -93.34293424 259.15495196 -95.1796875 257.203125 C-95.9840625 256.419375 -96.7884375 255.635625 -97.6171875 254.828125 C-98.4628125 253.961875 -99.3084375 253.095625 -100.1796875 252.203125 C-100.82421875 251.543125 -101.46875 250.883125 -102.1328125 250.203125 C-121.70455588 229.39959358 -132.94276413 202.99260549 -138.1796875 175.203125 C-138.3554834 174.30029785 -138.5312793 173.3974707 -138.71240234 172.46728516 C-139.25524954 168.67529615 -139.36040808 164.94330411 -139.3828125 161.12109375 C-139.38851257 160.34864822 -139.39421265 159.5762027 -139.40008545 158.78034973 C-139.40950028 157.14565379 -139.41605539 155.51093918 -139.41992188 153.8762207 C-139.42950924 151.43599778 -139.46051498 148.99666208 -139.4921875 146.55664062 C-139.73014979 111.37145144 -126.22444163 79.20794881 -104.1796875 52.203125 C-103.550625 51.43097656 -102.9215625 50.65882812 -102.2734375 49.86328125 C-98.29161028 45.14843584 -93.90377316 41.15873782 -89.1796875 37.203125 C-88.2825 36.41808594 -87.3853125 35.63304687 -86.4609375 34.82421875 C-63.26666592 14.83441891 -30.99092677 0.1829601 0 0 Z " fill="#EEAA33" transform="translate(139.1796875,-0.203125)"/>
<path d="M0 0 C5.97278848 4.51464293 7.73294492 10.90344873 9 18 C9.39313521 23.4660777 9.38526731 28.89799673 9.3125 34.375 C9.30360245 35.50399216 9.30360245 35.50399216 9.29452515 36.65579224 C8.83165448 94.59445706 -7.8598215 181.63381724 -49.94140625 225.140625 C-53.72508354 228.55813997 -57.00692527 230.55257506 -62.0625 231.6875 C-66.59435931 230.62685208 -68.55417548 227.82793246 -71 224 C-75.74137029 214.4253724 -75.24196689 204.05198008 -75.25 193.625 C-75.25067474 192.84167297 -75.25134949 192.05834595 -75.25204468 191.25128174 C-75.22163774 168.96441836 -71.74022822 147.74353541 -67 126 C-66.81211914 125.11812012 -66.62423828 124.23624023 -66.43066406 123.32763672 C-58.39305012 85.91189911 -44.54313091 24.67630097 -10.9375 0.875 C-6.96535926 -1.34815509 -4.37776376 -1.62139399 0 0 Z " fill="#FEFEFD" transform="translate(183,35)"/>
<path d="M0 0 C2.25 0.6875 2.25 0.6875 4 2.9375 C11.26774053 18.92652917 5.09325805 40.5544852 1.25 56.6875 C1.07952148 57.43112793 0.90904297 58.17475586 0.73339844 58.94091797 C-3.17882469 75.88973174 -10.38418831 105.17097489 -25.75 115.6875 C-28.87890625 116.015625 -28.87890625 116.015625 -31.75 115.6875 C-36.33064355 111.26480968 -35.93532803 105.54022968 -36.04296875 99.56665039 C-36.22533774 69.18169658 -28.74703843 28.29357375 -7.9296875 4.6171875 C-5.33564022 2.20281449 -3.45762995 0.86440749 0 0 Z " fill="#FEFDFC" transform="translate(92.75,72.3125)"/>
<path d="M0 0 C3.25531181 0.84921178 4.29213406 1.88721435 6.04589844 4.71142578 C7.83884592 9.11988028 7.50040902 13.87474097 7.4375 18.5625 C7.42323975 20.27880615 7.42323975 20.27880615 7.40869141 22.02978516 C6.95520608 41.14170139 1.95082574 59.71726079 -4.125 77.75 C-4.36863281 78.47541992 -4.61226562 79.20083984 -4.86328125 79.94824219 C-14.06596903 106.87963731 -14.06596903 106.87963731 -24.125 114.75 C-26.657144 115.64194896 -28.39910878 115.75 -31.125 115.75 C-34.57557181 109.25954516 -35.77893212 103.94577195 -35.625 96.625 C-35.61218994 95.67415527 -35.59937988 94.72331055 -35.58618164 93.74365234 C-34.78267845 64.66017499 -25.98511826 25.40647716 -6.0625 3 C-3.125 0.75 -3.125 0.75 0 0 Z " fill="#FEFDFC" transform="translate(236.125,111.25)"/>
<path d="M0 0 C-2.62438979 1.74959319 -3.96547627 2.62068453 -7 3 C-7.99 2.34 -8.98 1.68 -10 1 C-3.71428571 -1.42857143 -3.71428571 -1.42857143 0 0 Z " fill="#F8B034" transform="translate(202,291)"/>
</svg>
