<?xml version="1.0" standalone="no"?>
<!DOCTYPE svg PUBLIC "-//W3C//DTD SVG 20010904//EN"
 "http://www.w3.org/TR/2001/REC-SVG-20010904/DTD/svg10.dtd">
<svg version="1.0" xmlns="http://www.w3.org/2000/svg"
 width="512.000000pt" height="512.000000pt" viewBox="0 0 512.000000 512.000000"
 preserveAspectRatio="xMidYMid meet">

<g transform="translate(0.000000,512.000000) scale(0.100000,-0.100000)"
fill="#000000" stroke="none">
<path d="M2935 4453 c-44 -9 -202 -78 -234 -101 -47 -35 -64 -82 -56 -152 8
-71 -4 -85 -64 -71 -56 12 -112 -4 -149 -42 -39 -41 -113 -219 -114 -273 -1
-53 26 -102 75 -133 49 -32 50 -64 2 -92 -46 -28 -77 -79 -77 -132 -1 -47 80
-253 110 -280 35 -31 91 -48 155 -45 l62 3 -3 -67 c-4 -76 14 -127 57 -157 50
-36 222 -101 266 -101 49 0 100 30 130 77 34 54 56 53 93 -3 57 -87 124 -94
281 -29 151 64 175 93 169 209 l-3 71 80 0 c121 0 139 17 216 200 52 124 40
198 -41 251 -51 34 -52 61 -5 92 83 53 94 124 40 259 -67 168 -99 197 -206
189 -87 -6 -92 -2 -84 67 9 67 -5 114 -43 149 -25 25 -184 96 -245 112 -50 12
-103 -10 -149 -64 -24 -28 -51 -50 -60 -50 -10 0 -29 17 -43 38 -37 56 -104
88 -160 75z m472 -128 c131 -53 137 -57 128 -113 -15 -88 2 -138 58 -173 27
-17 43 -19 103 -14 52 4 74 2 82 -8 20 -24 82 -181 82 -208 0 -19 -10 -32 -37
-50 -54 -35 -76 -71 -76 -121 0 -56 21 -95 69 -127 25 -17 40 -36 42 -52 4
-35 -66 -197 -92 -214 -17 -12 -30 -12 -61 -4 -54 15 -105 -2 -145 -48 -32
-36 -32 -38 -27 -109 6 -60 4 -74 -11 -87 -29 -26 -193 -89 -216 -83 -11 3
-31 22 -44 41 -63 98 -185 98 -243 0 -30 -51 -53 -52 -155 -10 -119 49 -131
61 -117 121 13 57 2 102 -34 138 -36 37 -89 51 -138 37 -31 -8 -44 -8 -60 3
-26 17 -98 186 -93 218 2 13 20 34 45 50 55 38 81 101 64 157 -10 35 -28 55
-98 112 -7 5 -13 19 -13 30 0 22 65 186 83 207 7 9 28 11 77 6 52 -5 74 -3 98
10 57 30 88 100 70 162 -16 59 -2 76 98 117 114 48 136 48 168 1 34 -51 73
-74 124 -74 56 0 95 21 122 65 18 28 43 53 58 55 1 0 41 -16 89 -35z"/>
<path d="M3028 3953 c-193 -73 -280 -287 -192 -468 104 -212 389 -255 550 -83
68 73 89 126 89 228 0 76 -3 92 -33 152 -36 74 -87 124 -161 159 -63 31 -188
36 -253 12z m193 -98 c109 -39 176 -162 149 -275 -36 -151 -197 -224 -339
-154 -149 75 -171 277 -42 385 69 58 149 73 232 44z"/>
<path d="M2029 3978 c-100 -71 -238 -205 -316 -308 -82 -109 -194 -335 -231
-465 l-28 -100 -130 -6 c-143 -7 -259 -31 -373 -78 -404 -165 -663 -573 -638
-1005 22 -377 238 -701 582 -874 110 -55 302 -102 418 -102 53 0 83 26 73 64
-7 29 -14 32 -136 46 -132 15 -201 34 -307 85 -213 103 -371 270 -462 490 -84
201 -86 470 -6 674 95 243 277 428 522 531 99 41 208 61 373 67 164 6 175 11
185 76 10 60 61 216 96 294 90 200 254 397 439 528 69 48 80 61 80 85 0 29
-22 50 -52 50 -8 0 -48 -24 -89 -52z"/>
<path d="M4070 3370 c-9 -17 -4 -40 23 -123 19 -56 42 -147 51 -202 23 -134
18 -126 83 -164 206 -121 337 -273 424 -493 51 -131 67 -361 34 -513 -58 -275
-242 -508 -500 -635 -113 -56 -179 -74 -315 -90 -52 -6 -103 -13 -112 -16 -27
-8 -34 -51 -13 -74 21 -23 68 -26 178 -9 414 61 749 362 853 764 92 361 -16
741 -284 997 -43 40 -112 95 -154 122 -69 44 -78 53 -83 85 -12 79 -65 271
-87 317 -20 42 -28 49 -55 52 -24 2 -34 -2 -43 -18z"/>
<path d="M1340 2498 l-25 -14 0 -369 0 -369 27 -15 c24 -14 28 -14 47 3 19 17
21 32 23 170 l3 151 103 3 c97 3 103 2 127 -22 24 -24 25 -30 25 -151 0 -112
2 -127 20 -145 26 -26 45 -25 71 1 20 20 21 29 17 158 -3 119 -6 141 -27 177
l-23 40 24 40 c19 33 23 53 23 124 0 103 -20 151 -82 194 -40 28 -46 29 -185
33 -107 3 -149 1 -168 -9z m305 -123 c22 -21 25 -33 25 -94 0 -103 -12 -111
-152 -111 l-108 0 0 115 0 115 105 0 c99 0 107 -2 130 -25z"/>
<path d="M2052 2500 c-12 -5 -27 -22 -33 -37 -6 -17 -9 -150 -7 -369 3 -330 4
-344 23 -358 16 -12 56 -15 206 -16 168 0 188 2 202 18 23 26 21 58 -5 76 -18
13 -53 16 -170 16 l-148 0 0 115 0 115 100 0 c87 0 103 3 120 20 24 24 25 39
6 66 -12 16 -29 19 -120 22 l-106 4 0 114 0 114 153 0 c139 0 156 2 171 19 23
26 17 63 -14 78 -30 15 -342 17 -378 3z"/>
<path d="M2810 2501 c-66 -14 -121 -54 -149 -108 -6 -12 -14 -48 -17 -80 -16
-150 75 -252 223 -253 51 0 67 -4 90 -24 25 -22 28 -30 28 -89 0 -55 -4 -69
-24 -91 -22 -23 -32 -26 -91 -26 -79 0 -105 15 -120 70 -12 43 -39 65 -70 55
-69 -22 -26 -165 63 -212 42 -21 154 -29 203 -13 97 31 143 100 144 213 0 146
-61 209 -216 223 -105 10 -124 27 -124 118 0 59 2 66 31 90 26 22 40 26 92 26
74 -1 92 -12 113 -73 16 -48 38 -63 74 -52 66 21 12 174 -74 210 -41 17 -132
25 -176 16z"/>
<path d="M3310 2497 c-31 -15 -37 -52 -14 -78 14 -16 31 -19 106 -19 l88 0 0
-320 c0 -307 1 -321 20 -340 11 -11 27 -20 35 -20 8 0 24 9 35 20 19 19 20 33
20 340 l0 320 88 0 c98 0 127 15 120 61 -6 43 -38 49 -263 49 -149 0 -217 -4
-235 -13z"/>
<path d="M1895 1441 c-85 -16 -142 -67 -164 -146 -14 -53 -15 -551 0 -593 11
-33 33 -43 65 -31 28 10 34 45 34 200 l0 129 160 0 160 0 0 -155 c0 -151 0
-155 24 -170 28 -19 54 -10 67 22 12 32 12 558 -1 603 -13 47 -66 109 -108
127 -40 17 -179 25 -237 14z m214 -127 c30 -25 31 -28 31 -115 l0 -89 -155 0
-155 0 0 83 c0 128 19 145 162 146 79 1 89 -1 117 -25z"/>
<path d="M2542 1440 c-41 -18 -44 -45 -36 -408 7 -331 8 -344 28 -358 27 -18
32 -18 56 6 18 18 20 33 20 150 l0 130 110 0 c153 0 210 26 251 115 24 52 26
199 4 252 -39 94 -89 116 -270 120 -77 2 -150 -1 -163 -7z m312 -121 c25 -19
26 -25 26 -114 0 -135 -4 -139 -154 -143 l-116 -4 0 141 0 141 109 0 c94 0
112 -3 135 -21z"/>
<path d="M3222 1428 c-9 -9 -12 -106 -12 -374 l0 -363 22 -15 c29 -20 34 -20
58 4 19 19 20 33 20 378 0 265 -3 361 -12 370 -7 7 -24 12 -38 12 -14 0 -31
-5 -38 -12z"/>
<path d="M0 265 l0 -265 2560 0 2560 0 0 265 0 265 -2560 0 -2560 0 0 -265z
m168 3 c-3 -88 -4 -93 -25 -96 -22 -3 -23 -1 -23 92 l0 96 25 0 26 0 -3 -92z
m172 72 c0 -16 -7 -20 -35 -20 -28 0 -38 -5 -46 -24 -7 -14 -9 -36 -5 -50 6
-23 12 -26 46 -26 33 0 40 -4 40 -19 0 -39 -79 -43 -115 -6 -37 36 -32 130 9
157 6 4 32 8 59 8 40 0 47 -3 47 -20z m162 3 c35 -40 29 -130 -9 -159 -21 -16
-67 -18 -93 -4 -41 22 -50 122 -13 162 22 24 94 25 115 1z m127 -30 l31 -48 0
48 c0 44 2 47 25 47 l26 0 -3 -92 c-4 -114 -18 -125 -70 -51 l-33 48 -3 -48
c-3 -43 -5 -48 -25 -45 -21 3 -22 9 -25 96 -3 91 -3 92 21 92 18 0 33 -12 56
-47z m235 25 c9 -12 16 -30 16 -40 0 -26 -36 -58 -64 -58 -21 0 -25 -6 -28
-32 -2 -25 -8 -33 -23 -33 -18 0 -20 8 -23 93 l-3 92 55 0 c45 0 58 -4 70 -22z
m149 -61 c15 -46 27 -89 27 -95 0 -23 -40 -12 -52 13 -14 31 -53 34 -61 5 -6
-23 -34 -37 -48 -23 -8 8 10 73 46 171 2 6 17 12 33 12 26 0 29 -5 55 -83z
m182 63 c0 -10 -13 -17 -39 -20 -32 -4 -41 -10 -46 -30 -12 -44 5 -70 44 -70
41 0 56 -18 31 -37 -22 -15 -69 -17 -95 -3 -42 22 -50 122 -13 162 22 24 118
22 118 -2z m75 -7 l1 -28 22 28 c15 17 32 27 50 27 34 0 34 -10 2 -40 -14 -13
-25 -31 -25 -39 0 -9 11 -33 25 -53 31 -46 31 -58 1 -58 -17 0 -31 11 -47 38
l-23 37 -6 -35 c-4 -27 -10 -36 -27 -38 -22 -3 -23 -1 -23 92 0 96 0 96 25 96
21 0 25 -5 25 -27z m243 21 c14 -15 -8 -34 -39 -34 -44 0 -43 -14 4 -37 69
-34 48 -113 -31 -113 -39 0 -68 17 -60 35 3 10 17 15 39 13 18 -1 36 1 40 4
10 10 -6 28 -25 28 -45 0 -71 59 -41 95 12 15 100 22 113 9z m172 -42 l30 -47
3 48 c3 43 5 47 28 47 l25 0 -3 -92 c-3 -78 -6 -93 -20 -96 -11 -2 -29 13 -50
43 l-33 47 -3 -47 c-3 -41 -6 -46 -25 -43 -21 3 -22 9 -25 96 -3 90 -2 92 20
92 17 0 31 -13 53 -48z m235 28 c0 -16 -7 -20 -35 -20 -46 0 -49 -27 -2 -32
20 -2 32 -8 32 -18 0 -10 -12 -16 -32 -18 -47 -5 -43 -30 5 -34 29 -2 37 -7
37 -23 0 -18 -8 -20 -62 -23 l-63 -3 0 96 0 95 60 0 c53 0 60 -2 60 -20z m160
0 c0 -15 -7 -20 -25 -20 -24 0 -25 -2 -25 -76 0 -72 -1 -75 -22 -72 -21 3 -23
9 -26 76 -3 64 -5 72 -22 72 -13 0 -20 7 -20 20 0 18 7 20 70 20 63 0 70 -2
70 -20z m1470 0 c0 -16 -7 -20 -35 -20 -24 0 -35 -5 -35 -15 0 -10 10 -15 30
-15 23 0 30 -4 30 -20 0 -15 -7 -20 -29 -20 -27 0 -30 -3 -33 -37 -2 -31 -7
-39 -25 -41 -22 -3 -23 -1 -23 92 l0 96 60 0 c53 0 60 -2 60 -20z m142 3 c21
-19 24 -56 4 -75 -12 -12 -12 -19 0 -47 19 -45 18 -53 -8 -49 -15 2 -28 15
-37 36 -8 17 -18 32 -22 32 -4 0 -9 -15 -11 -32 -2 -25 -8 -33 -23 -33 -18 0
-20 8 -23 93 l-3 92 52 0 c35 0 59 -6 71 -17z m168 -3 c0 -16 -7 -20 -35 -20
-24 0 -35 -5 -35 -15 0 -10 10 -15 30 -15 23 0 30 -4 30 -20 0 -16 -7 -20 -30
-20 -20 0 -30 -5 -30 -15 0 -10 11 -15 35 -15 31 0 35 -3 35 -25 0 -24 -3 -25
-60 -25 l-60 0 0 95 0 95 60 0 c53 0 60 -2 60 -20z m160 0 c0 -17 -7 -20 -40
-20 -29 0 -40 -4 -40 -15 0 -10 11 -15 35 -15 28 0 35 -4 35 -20 0 -16 -7 -20
-35 -20 -50 0 -48 -28 3 -32 29 -2 37 -7 37 -23 0 -18 -7 -20 -60 -20 l-60 0
-3 93 -3 92 66 0 c58 0 65 -2 65 -20z m158 -72 c-3 -88 -4 -93 -25 -96 -22 -3
-23 -1 -23 92 l0 96 25 0 26 0 -3 -92z m170 70 c3 -14 -4 -18 -31 -18 -43 0
-59 -19 -55 -62 3 -31 5 -33 46 -36 33 -2 42 -7 42 -22 0 -35 -73 -42 -114 -9
-22 18 -26 28 -26 75 0 73 22 96 88 92 35 -2 48 -7 50 -20z m166 0 c10 -13 16
-44 16 -74 0 -45 -4 -56 -26 -73 -60 -47 -134 -8 -134 69 0 42 14 79 34 92 6
4 30 8 53 8 32 0 46 -5 57 -22z m121 -26 l30 -47 3 48 c3 39 6 47 23 47 17 0
19 -8 19 -95 0 -113 -12 -122 -63 -49 l-32 46 -5 -44 c-4 -35 -9 -43 -25 -43
-18 0 -20 8 -23 93 -3 90 -2 92 20 92 17 0 31 -13 53 -48z m305 -7 l44 -45
-47 -47 c-44 -45 -48 -47 -64 -30 -16 16 -15 18 12 47 l29 30 -29 30 c-23 24
-26 32 -15 45 18 21 21 20 70 -30z m-3352 -108 c4 -20 -25 -34 -40 -19 -15 15
-1 44 19 40 10 -2 19 -11 21 -21z"/>
<path d="M420 299 c-13 -24 -4 -75 14 -82 31 -12 53 34 37 77 -12 31 -36 34
-51 5z"/>
<path d="M790 299 c0 -24 23 -21 28 4 2 10 -3 17 -12 17 -10 0 -16 -9 -16 -21z"/>
<path d="M951 293 c-1 -6 -4 -18 -7 -27 -4 -11 -1 -16 10 -16 18 0 19 6 6 35
-5 11 -9 15 -9 8z"/>
<path d="M3620 300 c0 -22 7 -25 29 -11 16 10 6 31 -15 31 -8 0 -14 -9 -14
-20z"/>
<path d="M4426 305 c-12 -33 -6 -74 13 -84 27 -15 43 8 39 56 -2 30 -8 39 -24
41 -13 2 -24 -4 -28 -13z"/>
</g>
</svg>
