<?xml version="1.0" standalone="no"?>
<!DOCTYPE svg PUBLIC "-//W3C//DTD SVG 20010904//EN"
 "http://www.w3.org/TR/2001/REC-SVG-20010904/DTD/svg10.dtd">
<svg version="1.0" xmlns="http://www.w3.org/2000/svg"
 width="512.000000pt" height="512.000000pt" viewBox="0 0 512.000000 512.000000"
 preserveAspectRatio="xMidYMid meet">

<g transform="translate(0.000000,512.000000) scale(0.100000,-0.100000)"
fill="#000000" stroke="none">
<path d="M2384 5110 c-1030 -70 -1927 -766 -2249 -1745 -144 -438 -169 -918
-70 -1358 163 -723 629 -1343 1269 -1688 l76 -41 0 616 c0 339 2 616 5 616 3
0 42 -18 87 -41 237 -119 641 -202 903 -184 382 25 594 172 671 465 24 89 24
291 0 379 -51 188 -172 313 -370 381 -197 67 -555 65 -900 -5 l-69 -15 -121
73 c-108 65 -121 76 -124 103 -3 27 109 1502 124 1632 l5 52 911 0 911 0 -6
167 c-4 91 -7 228 -7 304 l0 137 -92 31 c-207 68 -414 107 -643 121 -82 5
-161 9 -175 8 -14 0 -75 -4 -136 -8z"/>
</g>
</svg>
