<?xml version="1.0" encoding="UTF-8"?>
<svg version="1.1" xmlns="http://www.w3.org/2000/svg" width="204" height="247">
<path d="M0 0 C67.32 0 134.64 0 204 0 C204 81.51 204 163.02 204 247 C136.68 247 69.36 247 0 247 C0 165.49 0 83.98 0 0 Z " fill="#FEFEFE" transform="translate(0,0)"/>
<path d="M0 0 C2.17244497 13.38082866 4.63585563 29.45015325 -3.68209839 41.13566589 C-10.21742969 49.31800478 -18.11349344 56.29080685 -25.95672607 63.18511963 C-29.37455358 66.2209084 -32.70247179 69.35185125 -36.03515625 72.48046875 C-39.79430138 76.00893913 -43.55566249 79.52858319 -47.40307617 82.9609375 C-63.52375122 97.42455507 -74.92281959 115.63956645 -76.37890625 137.640625 C-77.20767249 159.13139087 -70.58479701 179.01339224 -56 195 C-55.48308594 195.6084375 -54.96617188 196.216875 -54.43359375 196.84375 C-42.18906182 210.34649197 -22.79323067 218.14630186 -4.9296875 219.3203125 C15.14093995 220.12807262 35.03708063 213.63851785 50 200 C50.81855469 199.27296875 51.63710937 198.5459375 52.48046875 197.796875 C66.36088967 184.77741816 74.51498455 166.74399335 75.3359375 147.703125 C75.67868535 127.15688175 70.56652262 108.52317489 56.46875 93.015625 C55 91 55 91 55 87 C56.43701172 85.07714844 56.43701172 85.07714844 58.4296875 83.109375 C59.14253906 82.40039062 59.85539063 81.69140625 60.58984375 80.9609375 C61.34394531 80.23132813 62.09804687 79.50171875 62.875 78.75 C63.62136719 78.00492187 64.36773437 77.25984375 65.13671875 76.4921875 C70.71943681 71 70.71943681 71 73 71 C91.34806222 90.31965004 102.67408626 116.85797839 102.28076172 143.5949707 C101.40830308 172.11790549 90.91300541 198.52166512 69.921875 218.36328125 C56.85420446 229.49204945 43.33706532 237.05316319 27 242 C25.30423828 242.51433594 25.30423828 242.51433594 23.57421875 243.0390625 C-1.7341484 249.52527875 -29.85910753 244.18158418 -52.12939453 231.09399414 C-75.50146983 216.79463735 -93.0764816 193.40427823 -99.56201172 166.68457031 C-101.11231187 159.25806558 -101.37239071 151.88453962 -101.37060547 144.32226562 C-101.37496591 142.26607496 -101.41138474 140.21206189 -101.44921875 138.15625 C-101.67458952 111.43793641 -88.5658895 87.71815164 -70.25693893 69.03441238 C-66.43802974 65.17923864 -62.59617079 61.34748012 -58.75 57.51953125 C-57.08337474 55.85410001 -55.41712108 54.18829683 -53.7512207 52.5221405 C-50.28141021 49.05388494 -46.80829335 45.58898808 -43.33251953 42.12670898 C-38.86718403 37.67848833 -34.40858658 33.22358627 -29.95217896 28.76642323 C-26.52284166 25.33735686 -23.09091271 21.91089464 -19.65808105 18.48532677 C-18.01155444 16.84198949 -16.3656391 15.19803951 -14.72033691 13.55347633 C-12.4345577 11.26985074 -10.14552663 8.98953884 -7.85546875 6.71020508 C-6.83011269 5.68416924 -6.83011269 5.68416924 -5.78404236 4.6374054 C-4.85489769 3.7146582 -4.85489769 3.7146582 -3.90698242 2.77326965 C-3.36651779 2.23448087 -2.82605316 1.69569208 -2.26921082 1.14057636 C-1 -0 -1 -0 0 0 Z " fill="#EE4B2B" transform="translate(102,1)"/>
<path d="M0 0 C3.4812511 2.32083406 4.99212405 4.09421919 6.8125 7.875 C7.48985912 12.19031033 7.29606594 15.7042614 5.625 19.75 C2.87071098 22.97916644 0.75455059 24.64144202 -3.55859375 25.16015625 C-8.48573643 25.328543 -12.37958395 25.33674186 -16.1875 21.875 C-19.21967022 17.37902346 -20.13888112 13.17102155 -19.1875 7.875 C-14.96933115 -0.40510922 -8.89434708 -3.13918132 0 0 Z " fill="#EE4B2A" transform="translate(144.1875,42.125)"/>
</svg>
