<?xml version="1.0" standalone="no"?>
<!DOCTYPE svg PUBLIC "-//W3C//DTD SVG 20010904//EN"
 "http://www.w3.org/TR/2001/REC-SVG-20010904/DTD/svg10.dtd">
<svg version="1.0" xmlns="http://www.w3.org/2000/svg"
 width="831.000000pt" height="1024.000000pt" viewBox="0 0 831.000000 1024.000000"
 preserveAspectRatio="xMidYMid meet">

<g transform="translate(0.000000,1024.000000) scale(0.100000,-0.100000)"
fill="#000000" stroke="none">
<path d="M3975 10223 c-1008 -87 -1774 -918 -1775 -1925 0 -646 327 -1248 877
-1612 39 -27 76 -46 82 -45 8 3 581 983 581 994 0 1 -25 19 -55 40 -133 91
-244 247 -297 415 -19 63 -23 96 -23 210 0 114 4 147 23 210 44 138 96 225
202 331 81 82 109 102 190 142 135 67 200 82 350 81 144 0 211 -15 336 -75
195 -95 349 -283 405 -496 27 -102 29 -270 4 -368 -47 -190 -165 -359 -326
-466 l-36 -24 288 -499 c158 -274 289 -500 291 -502 7 -7 212 137 294 207 385
326 637 839 662 1346 24 475 -101 895 -378 1268 -388 524 -1051 824 -1695 768z"/>
<path d="M5267 6101 c-191 -129 -345 -274 -476 -448 -384 -511 -491 -1164
-290 -1768 230 -692 819 -1186 1549 -1301 141 -22 419 -22 562 0 413 64 787
253 1079 545 680 680 756 1742 181 2521 -73 99 -247 277 -347 355 -110 86
-225 159 -234 149 -13 -15 -571 -985 -571 -993 0 -4 25 -25 55 -46 30 -20 81
-66 114 -100 216 -231 268 -562 132 -849 -77 -164 -195 -283 -356 -361 -118
-56 -210 -77 -339 -77 -127 0 -213 20 -331 77 -417 201 -560 720 -305 1108 49
76 168 195 221 222 22 12 29 21 24 33 -11 30 -569 992 -574 992 -3 0 -46 -27
-94 -59z"/>
<path d="M547 2095 c-187 -23 -302 -71 -361 -148 -82 -107 -124 -399 -112
-777 8 -281 40 -437 107 -529 80 -111 262 -161 584 -161 274 0 448 31 549 97
112 74 156 214 176 565 22 388 -26 709 -123 824 -39 47 -137 93 -240 115 -123
27 -427 34 -580 14z m473 -266 c62 -13 114 -41 125 -67 38 -91 59 -521 36
-741 -26 -253 -60 -276 -391 -276 -286 0 -354 23 -385 129 -28 94 -39 314 -26
557 15 315 32 362 134 390 106 29 387 34 507 8z"/>
<path d="M5935 2099 c-112 -11 -245 -44 -307 -75 -63 -32 -110 -81 -142 -148
-49 -103 -58 -163 -63 -419 -9 -451 32 -744 119 -843 40 -45 134 -89 238 -111
121 -26 568 -26 683 -1 150 34 216 78 258 173 26 58 49 202 49 301 l0 84 -149
0 -148 0 -5 -89 c-12 -198 -84 -239 -403 -228 -246 8 -295 35 -321 173 -20
107 -30 549 -15 675 25 209 45 228 269 251 137 15 325 0 375 -29 46 -26 70
-83 75 -175 l5 -78 152 0 152 0 -4 83 c-10 225 -60 344 -166 399 -84 43 -182
59 -377 63 -102 2 -225 0 -275 -6z"/>
<path d="M6830 2086 c0 -8 68 -228 151 -488 83 -260 196 -616 252 -791 l101
-317 235 2 235 3 74 230 c40 127 154 479 253 784 98 304 179 562 179 572 0 18
-10 19 -137 19 -76 0 -147 -3 -158 -6 -17 -4 -48 -92 -187 -522 -92 -284 -186
-582 -209 -662 -22 -80 -44 -148 -48 -152 -3 -4 -28 70 -55 165 -27 94 -122
395 -212 667 -123 374 -167 496 -181 501 -10 4 -80 8 -155 8 -113 1 -138 -2
-138 -13z"/>
<path d="M2265 1620 c-115 -13 -202 -54 -260 -123 l-35 -42 0 78 0 77 -135 0
-135 0 2 -802 3 -803 138 -3 137 -3 0 321 0 321 58 -58 c82 -83 128 -98 302
-98 166 0 228 17 299 81 94 85 124 203 125 489 0 275 -27 390 -114 474 -74 72
-232 109 -385 91z m80 -215 c70 -18 107 -52 127 -117 18 -59 18 -417 0 -475
-29 -95 -92 -128 -243 -127 -195 1 -249 82 -249 369 1 127 20 250 45 289 44
67 188 95 320 61z"/>
<path d="M4740 1620 c-130 -16 -211 -64 -269 -160 l-21 -35 0 93 0 92 -125 0
-125 0 0 -560 0 -560 130 0 129 0 3 383 3 382 28 47 c35 60 69 84 148 104 116
30 224 6 273 -59 20 -28 21 -39 24 -443 l3 -414 134 0 135 0 0 393 c0 221 -5
420 -10 456 -22 133 -100 226 -219 260 -77 23 -163 30 -241 21z"/>
<path d="M3244 1606 c-234 -53 -304 -178 -304 -542 0 -303 47 -457 158 -517
89 -48 146 -59 327 -64 192 -5 274 6 370 53 62 31 119 87 142 142 8 19 18 66
22 104 l7 68 -132 0 -132 0 -7 -42 c-16 -98 -60 -122 -220 -122 -123 0 -169
11 -207 52 -34 36 -47 79 -55 179 l-6 83 376 0 c207 0 378 3 380 8 2 4 0 66
-4 137 -17 289 -75 398 -242 451 -72 23 -386 29 -473 10z m385 -215 c34 -18
43 -29 56 -73 8 -28 15 -73 15 -100 l0 -48 -246 0 -247 0 5 68 c11 149 68 185
275 177 77 -3 111 -9 142 -24z"/>
</g>
</svg>
