<?xml version="1.0" encoding="UTF-8"?>
<!DOCTYPE svg PUBLIC "-//W3C//DTD SVG 1.1//EN" "http://www.w3.org/Graphics/SVG/1.1/DTD/svg11.dtd">
<svg xmlns="http://www.w3.org/2000/svg" version="1.1" width="1200px" height="298px" style="shape-rendering:geometricPrecision; text-rendering:geometricPrecision; image-rendering:optimizeQuality; fill-rule:evenodd; clip-rule:evenodd" xmlns:xlink="http://www.w3.org/1999/xlink">
<g><path style="opacity:0.953" fill="#000000" d="M 1199.5,110.5 C 1199.5,147.5 1199.5,184.5 1199.5,221.5C 1192.5,221.5 1185.5,221.5 1178.5,221.5C 1178.94,185.474 1178.44,149.474 1177,113.5C 1173.63,97.6376 1163.8,89.6376 1147.5,89.5C 1130.67,91.1681 1116.17,97.8348 1104,109.5C 1103.5,146.832 1103.33,184.165 1103.5,221.5C 1096.5,221.5 1089.5,221.5 1082.5,221.5C 1082.5,149.5 1082.5,77.5 1082.5,5.5C 1089.45,3.90954 1096.45,2.57621 1103.5,1.5C 1103.33,31.5019 1103.5,61.5019 1104,91.5C 1121.35,75.1618 1141.85,68.6618 1165.5,72C 1185.05,77.6043 1196.38,90.4376 1199.5,110.5 Z"/></g>
<g><path style="opacity:0.976" fill="#ee4b2c" d="M 89.5,5.5 C 90.8286,10.6238 91.4952,16.1238 91.5,22C 91.3333,27.5 91.1667,33 91,38.5C 73.3333,56.1667 55.6667,73.8333 38,91.5C 18.7136,119.161 18.7136,146.828 38,174.5C 59.5701,198.768 85.7367,205.601 116.5,195C 149.232,178.535 162.232,152.201 155.5,116C 152.059,104.109 146.059,93.7753 137.5,85C 143.015,79.3184 148.681,73.8184 154.5,68.5C 178.349,92.8759 186.516,121.876 179,155.5C 167.914,192.585 143.414,215.085 105.5,223C 65.5297,227.427 34.6964,212.927 13,179.5C -6.39547,141.629 -3.06214,105.962 23,72.5C 45.3683,50.2986 67.535,27.9653 89.5,5.5 Z"/></g>
<g><path style="opacity:0.96" fill="#000000" d="M 270.5,20.5 C 291.836,20.3334 313.169,20.5 334.5,21C 380.455,25.4433 401.621,50.6099 398,96.5C 393.993,120.514 380.493,136.68 357.5,145C 352.246,146.647 346.913,147.98 341.5,149C 324.866,150.353 308.199,150.853 291.5,150.5C 291.5,173.833 291.5,197.167 291.5,220.5C 284.5,220.5 277.5,220.5 270.5,220.5C 270.5,153.833 270.5,87.1667 270.5,20.5 Z M 292.5,41.5 C 306.171,41.3334 319.837,41.5001 333.5,42C 365.745,45.566 380.245,63.3993 377,95.5C 373.474,111.361 363.974,121.861 348.5,127C 344.23,128.254 339.896,129.254 335.5,130C 321.483,131 307.483,131.833 293.5,132.5C 292.5,102.174 292.167,71.8407 292.5,41.5 Z"/></g>
<g><path style="opacity:0.945" fill="#000000" d="M 523.5,21.5 C 577.5,21.5 631.5,21.5 685.5,21.5C 685.5,28.1667 685.5,34.8333 685.5,41.5C 662.167,41.5 638.833,41.5 615.5,41.5C 615.5,101.5 615.5,161.5 615.5,221.5C 608.167,221.5 600.833,221.5 593.5,221.5C 593.5,161.5 593.5,101.5 593.5,41.5C 570.167,41.5 546.833,41.5 523.5,41.5C 523.5,34.8333 523.5,28.1667 523.5,21.5 Z"/></g>
<g><path style="opacity:0.959" fill="#ee4c2c" d="M 117.5,41.5 C 129.691,39.4722 135.524,44.4722 135,56.5C 131.994,64.0636 126.494,66.897 118.5,65C 110.4,60.3592 108.567,53.8592 113,45.5C 114.667,44.2668 116.167,42.9335 117.5,41.5 Z"/></g>
<g><path style="opacity:0.94" fill="#000000" d="M 863.5,69.5 C 865.311,78.4462 866.145,87.7796 866,97.5C 880.185,72.1629 901.018,64.3296 928.5,74C 930.813,74.6409 932.48,75.9743 933.5,78C 931.827,83.6951 930.161,89.3617 928.5,95C 923.265,93.4031 917.932,91.7365 912.5,90C 902.409,88.2545 893.409,90.5878 885.5,97C 877.446,105.056 870.946,114.222 866,124.5C 865.5,156.832 865.333,189.165 865.5,221.5C 858.5,221.5 851.5,221.5 844.5,221.5C 844.333,172.499 844.5,123.499 845,74.5C 851.276,72.8844 857.442,71.2178 863.5,69.5 Z"/></g>
<g><path style="opacity:0.941" fill="#000000" d="M 732.5,70.5 C 785.442,68.1489 813.109,93.4822 815.5,146.5C 815.747,179.202 801.747,203.369 773.5,219C 743.231,230.827 716.064,225.993 692,204.5C 674.563,182.414 668.563,157.414 674,129.5C 681.05,97.2843 700.55,77.6176 732.5,70.5 Z M 736.5,89.5 C 769.892,89.0537 789.058,105.387 794,138.5C 797.494,162.022 790.66,181.856 773.5,198C 753.264,210.917 733.264,210.584 713.5,197C 702.394,186.956 695.894,174.456 694,159.5C 690.637,137.091 696.471,117.591 711.5,101C 718.984,95.1255 727.318,91.2921 736.5,89.5 Z"/></g>
<g><path style="opacity:0.94" fill="#000000" d="M 998.5,70.5 C 1019.66,68.0227 1039.32,72.1893 1057.5,83C 1055.58,89.1732 1053.58,95.3399 1051.5,101.5C 1029.58,87.547 1006.92,86.047 983.5,97C 967.579,109.72 959.913,126.387 960.5,147C 959.982,167.283 967.315,183.95 982.5,197C 996.471,205.456 1011.47,207.789 1027.5,204C 1036,202.11 1044,198.943 1051.5,194.5C 1052.09,194.709 1052.59,195.043 1053,195.5C 1054.43,201.388 1055.93,207.221 1057.5,213C 1029.15,228.618 1000.48,229.285 971.5,215C 955.397,203.882 945.23,188.716 941,169.5C 934.942,141.111 940.609,115.444 958,92.5C 969.344,81.0802 982.844,73.7468 998.5,70.5 Z"/></g>
<g><path style="opacity:0.937" fill="#000000" d="M 439.5,297.5 C 434.167,297.5 428.833,297.5 423.5,297.5C 416.862,295.735 410.195,293.735 403.5,291.5C 404.666,284.33 407,277.664 410.5,271.5C 419.18,277.111 428.513,278.944 438.5,277C 441.603,275.561 444.436,273.727 447,271.5C 457.396,255.203 465.23,237.703 470.5,219C 452.257,171.012 433.59,123.178 414.5,75.5C 422.058,74.187 429.558,74.187 437,75.5C 452,114.833 467,154.167 482,193.5C 496.667,154.167 511.333,114.833 526,75.5C 533.42,74.3534 540.92,74.1868 548.5,75C 524.083,135.913 500.25,197.08 477,258.5C 473.011,267.82 468.011,276.487 462,284.5C 455.794,291.235 448.294,295.568 439.5,297.5 Z"/></g>
</svg>
