<?xml version="1.0" encoding="UTF-8"?>
<!DOCTYPE svg PUBLIC "-//W3C//DTD SVG 1.1//EN" "http://www.w3.org/Graphics/SVG/1.1/DTD/svg11.dtd">
<svg xmlns="http://www.w3.org/2000/svg" version="1.1" width="512px" height="512px" style="shape-rendering:geometricPrecision; text-rendering:geometricPrecision; image-rendering:optimizeQuality; fill-rule:evenodd; clip-rule:evenodd" xmlns:xlink="http://www.w3.org/1999/xlink">
<g><path style="opacity:0.867" fill="#000000" d="M 226.5,-0.5 C 245.167,-0.5 263.833,-0.5 282.5,-0.5C 374.16,12.8537 441.994,59.8537 486,140.5C 498.595,167.995 507.095,196.662 511.5,226.5C 511.5,245.833 511.5,265.167 511.5,284.5C 498.148,376.304 450.481,443.47 368.5,486C 340.939,498.603 312.272,507.103 282.5,511.5C 263.833,511.5 245.167,511.5 226.5,511.5C 144.001,499.275 80.1679,458.608 35,389.5C 16.3711,356.884 4.53773,321.884 -0.5,284.5C -0.5,265.167 -0.5,245.833 -0.5,226.5C 11.4126,139.872 54.746,74.705 129.5,31C 150.643,19.3945 172.976,10.7278 196.5,5C 206.714,3.58841 216.714,1.75508 226.5,-0.5 Z M 197.5,18.5 C 189.866,23.6402 188.699,29.9735 194,37.5C 196.743,39.7879 199.577,41.9545 202.5,44C 219.438,49.9977 236.938,52.8311 255,52.5C 274.207,53.0921 292.707,49.9254 310.5,43C 322.402,35.8134 323.402,27.6468 313.5,18.5C 366.48,31.9846 410.48,59.6513 445.5,101.5C 446.59,102.609 446.59,103.609 445.5,104.5C 426.217,96.0373 406.217,89.5373 385.5,85C 364.337,80.8634 343.003,77.8634 321.5,76C 285.521,74.4092 249.521,74.0758 213.5,75C 200.814,76.184 188.147,77.184 175.5,78C 166.338,61.0949 153.005,56.7615 135.5,65C 128.128,70.719 124.461,78.219 124.5,87.5C 102.012,90.8833 81.0123,98.2166 61.5,109.5C 61.1667,109.167 60.8333,108.833 60.5,108.5C 95.301,62.1891 140.968,32.1891 197.5,18.5 Z M 240.5,19.5 C 254.859,19.2897 269.192,19.7897 283.5,21C 289.584,22.3543 295.584,24.021 301.5,26C 308.167,28.6667 308.167,31.3333 301.5,34C 270.817,42.6634 240.15,42.6634 209.5,34C 207.545,33.0467 205.878,31.7134 204.5,30C 207.393,26.7175 211.06,24.7175 215.5,24C 223.775,21.3762 232.108,19.8762 240.5,19.5 Z M 235.5,85.5 C 291.116,84.4618 346.116,89.6285 400.5,101C 420.678,105.697 439.345,113.697 456.5,125C 465.75,132.305 466.75,140.472 459.5,149.5C 452.331,155.59 444.331,160.423 435.5,164C 403.652,174.961 370.986,182.461 337.5,186.5C 299.556,183.234 261.556,182.068 223.5,183C 205.97,156.813 188.47,130.646 171,104.5C 172.138,101.945 173.471,99.2784 175,96.5C 175.495,94.5273 175.662,92.5273 175.5,90.5C 195.646,88.8212 215.646,87.1545 235.5,85.5 Z M 124.5,99.5 C 127.86,98.7904 129.693,100.124 130,103.5C 138.441,112.197 148.441,114.53 160,110.5C 176.284,134.895 192.451,159.395 208.5,184C 164.383,186.643 121.716,179.977 80.5,164C 71.2449,160.122 63.0783,154.622 56,147.5C 53.7553,144.11 52.7553,140.443 53,136.5C 55.9379,130.402 60.1045,125.402 65.5,121.5C 84.1382,111.399 103.805,104.065 124.5,99.5 Z M 39.5,140.5 C 41.9379,147.372 45.4379,153.705 50,159.5C 61.589,167.871 74.089,174.705 87.5,180C 101.763,184.045 116.096,187.878 130.5,191.5C 104.62,195.978 79.2866,202.478 54.5,211C 39.5174,216.331 26.3507,224.498 15,235.5C 14,237.167 13,238.833 12,240.5C 13.9133,205.063 23.0799,171.73 39.5,140.5 Z M 474.5,147.5 C 489.041,176.657 497.208,207.657 499,240.5C 495.545,234.711 491.045,229.878 485.5,226C 466.45,213.976 445.783,205.642 423.5,201C 409.881,197.743 396.214,194.743 382.5,192C 393.237,189.982 403.903,187.649 414.5,185C 430.601,179.946 445.934,173.279 460.5,165C 466.514,160.163 471.18,154.329 474.5,147.5 Z M 172.5,198.5 C 188.467,199.967 204.467,201.134 220.5,202C 243.991,237.524 267.658,272.857 291.5,308C 252.918,307.668 214.418,309.168 176,312.5C 138.087,308.451 100.92,300.951 64.5,290C 56.3334,286.964 48.3334,283.631 40.5,280C 12.5131,264.066 12.5131,248.066 40.5,232C 59.7543,223.137 79.7543,216.137 100.5,211C 124.508,206.095 148.508,201.928 172.5,198.5 Z M 338.5,198.5 C 376.184,203.004 413.184,210.837 449.5,222C 462.121,226.721 473.787,233.054 484.5,241C 493.608,250.356 493.775,259.856 485,269.5C 469.945,280.942 453.112,289.109 434.5,294C 402.976,302.718 370.976,308.884 338.5,312.5C 327.886,311.036 317.219,310.036 306.5,309.5C 306.649,308.448 306.483,307.448 306,306.5C 282.721,272.12 259.555,237.62 236.5,203C 256.167,202.667 275.833,202.333 295.5,202C 310.032,201.371 324.366,200.205 338.5,198.5 Z M 11.5,271.5 C 23.7957,285.324 38.7957,295.157 56.5,301C 80.8397,308.83 105.506,315.163 130.5,320C 107.431,324.025 85.4306,331.025 64.5,341C 57.0926,345.406 50.5926,350.906 45,357.5C 42.9473,361.654 41.2806,365.987 40,370.5C 23.3907,339.668 13.8907,306.668 11.5,271.5 Z M 498.5,271.5 C 499.638,274.304 499.805,277.304 499,280.5C 495.656,309.583 487.656,337.249 475,363.5C 471.238,356.742 466.405,350.909 460.5,346C 445.938,337.723 430.605,331.056 414.5,326C 403.914,323.354 393.248,321.021 382.5,319C 407.725,314.797 432.392,308.463 456.5,300C 466.638,295.766 476.304,290.766 485.5,285C 490.71,281.291 495.043,276.791 498.5,271.5 Z M 335.5,324.5 C 365.363,327.732 394.697,333.565 423.5,342C 432.874,345.188 441.874,349.188 450.5,354C 457.898,358.231 462.898,364.398 465.5,372.5C 462.89,379.947 458.224,385.78 451.5,390C 434.269,398.779 416.269,405.612 397.5,410.5C 394.413,398.261 386.413,392.261 373.5,392.5C 370.094,392.296 366.928,392.962 364,394.5C 349.155,372.133 334.321,349.8 319.5,327.5C 324.919,326.236 330.253,325.236 335.5,324.5 Z M 169.5,325.5 C 198.998,326.515 228.498,327.515 258,328.5C 273.551,328.28 289.051,327.78 304.5,327C 319.936,351.356 335.769,375.523 352,399.5C 352.667,400.833 352.667,402.167 352,403.5C 349.479,408.561 347.646,413.894 346.5,419.5C 276.637,427.388 206.97,425.888 137.5,415C 115.366,410.732 94.0328,404.066 73.5,395C 66.7671,391.268 60.9338,386.435 56,380.5C 52.2222,370.843 54.7222,363.01 63.5,357C 69.142,353.082 75.142,349.748 81.5,347C 110.157,336.669 139.49,329.502 169.5,325.5 Z M 60.5,401.5 C 82.4302,412.953 105.764,421.12 130.5,426C 186.738,436.071 243.405,439.404 300.5,436C 315.878,434.951 331.211,433.451 346.5,431.5C 348.167,431.667 349.833,431.833 351.5,432C 358.629,441.938 368.296,445.604 380.5,443C 390.951,440.05 396.951,433.217 398.5,422.5C 415.177,419.601 431.01,414.268 446,406.5C 439.434,416.962 431.268,426.462 421.5,435C 389.929,463.788 353.262,483.121 311.5,493C 320.459,488.46 322.293,481.96 317,473.5C 314.257,471.212 311.423,469.045 308.5,467C 296.379,461.804 283.713,459.137 270.5,459C 252.368,457.832 234.368,458.832 216.5,462C 205.819,463.75 197.319,468.916 191,477.5C 189.908,483.978 192.075,488.978 197.5,492.5C 144.52,479.015 100.52,451.349 65.5,409.5C 63.4959,407.013 61.8292,404.347 60.5,401.5 Z M 248.5,470.5 C 267.641,469.702 286.308,472.202 304.5,478C 305.5,479 306.5,480 307.5,481C 300.51,485.555 292.844,488.555 284.5,490C 265.167,492 245.833,492 226.5,490C 219.708,488.402 213.041,486.402 206.5,484C 203.833,482.333 203.833,480.667 206.5,479C 220.01,473.132 234.01,470.298 248.5,470.5 Z"/></g>
</svg>
