<?xml version="1.0" standalone="no"?>
<!DOCTYPE svg PUBLIC "-//W3C//DTD SVG 20010904//EN"
 "http://www.w3.org/TR/2001/REC-SVG-20010904/DTD/svg10.dtd">
<svg version="1.0" xmlns="http://www.w3.org/2000/svg"
 width="1500.000000pt" height="645.000000pt" viewBox="0 0 1500.000000 645.000000"
 preserveAspectRatio="xMidYMid meet">

<g transform="translate(0.000000,645.000000) scale(0.100000,-0.100000)"
fill="#000000" stroke="none">
<path d="M10228 5184 c-156 -37 -280 -145 -340 -293 l-23 -56 -5 -1325 -5
-1325 -698 -5 -699 -5 -25 -30 c-25 -28 -25 -33 -20 -125 18 -292 191 -548
462 -681 136 -66 211 -83 365 -82 245 1 433 83 602 261 118 125 194 285 217
455 7 52 11 532 11 1435 0 904 4 1369 10 1394 16 56 68 117 129 152 46 25 66
30 120 30 145 -1 247 -92 266 -239 8 -65 23 -93 57 -111 34 -18 62 -18 97 0
70 37 68 174 -6 321 -56 110 -196 210 -327 234 -75 14 -116 13 -188 -5z m-389
-3243 c-25 -110 -75 -199 -163 -289 -275 -283 -733 -240 -952 89 -42 63 -94
188 -94 225 0 12 93 14 609 14 l609 0 -9 -39z"/>
<path d="M7645 4011 c-81 -20 -143 -78 -171 -163 -10 -30 -20 -100 -23 -163
l-6 -110 -72 -3 c-64 -3 -75 -6 -93 -29 -25 -32 -26 -64 -1 -94 16 -20 31 -25
93 -29 l73 -5 5 -380 c3 -209 9 -388 14 -398 24 -50 135 -64 183 -23 l28 24 5
389 5 388 93 5 c106 6 122 16 122 81 0 53 -19 63 -124 69 l-91 5 3 90 c5 154
37 190 158 179 69 -6 72 -5 92 21 27 35 28 75 2 108 -15 19 -35 28 -83 36 -70
12 -166 13 -212 2z"/>
<path d="M6913 3991 c-48 -22 -63 -45 -63 -98 0 -47 22 -81 66 -99 66 -28 155
-10 188 37 18 27 21 91 5 121 -13 25 -84 58 -124 58 -16 0 -49 -9 -72 -19z"/>
<path d="M1482 3980 c-63 -39 -62 -28 -62 -685 0 -646 -1 -640 55 -683 27 -22
34 -22 354 -22 419 0 470 11 587 122 57 54 86 110 104 204 32 163 -64 326
-224 383 l-68 24 53 25 c240 114 256 442 29 581 -102 63 -160 71 -495 71 -283
0 -302 -1 -333 -20z m611 -194 c44 -21 63 -38 84 -74 35 -59 37 -137 6 -197
-26 -51 -47 -69 -108 -97 -46 -21 -65 -23 -220 -23 l-170 0 -3 200 c-1 110 0
206 3 213 4 12 36 14 179 10 164 -4 176 -5 229 -32z m27 -588 c30 -13 69 -41
87 -61 64 -73 63 -208 -3 -286 -57 -66 -91 -75 -321 -79 l-203 -4 0 224 c0
124 3 228 8 232 4 4 90 6 192 4 172 -4 189 -6 240 -30z"/>
<path d="M9320 3993 c-8 -3 -27 -17 -42 -31 l-28 -26 0 -644 0 -644 29 -29
c25 -25 37 -29 81 -29 46 0 56 4 86 34 l34 34 0 625 c0 382 -4 636 -10 651
-18 48 -96 78 -150 59z"/>
<path d="M6320 3920 c-37 -9 -67 -39 -75 -74 -3 -11 -8 -77 -12 -146 l-8 -125
-70 -3 c-85 -4 -115 -25 -115 -82 0 -54 30 -78 105 -82 l60 -3 6 -300 c6 -304
11 -339 50 -417 41 -79 155 -126 283 -114 149 14 216 83 155 160 -19 24 -26
26 -105 26 -144 0 -147 8 -142 400 l3 245 92 3 c86 3 94 5 113 29 26 33 26 73
0 106 -19 24 -27 26 -113 29 l-92 3 -5 152 c-4 136 -7 155 -25 172 -25 24 -60
31 -105 21z"/>
<path d="M3155 3583 c-96 -13 -193 -61 -273 -136 -210 -199 -205 -559 10 -752
126 -113 313 -149 518 -98 167 41 274 143 222 212 -27 36 -66 32 -177 -15 -82
-35 -98 -38 -185 -38 -111 -1 -163 18 -223 79 -39 40 -77 127 -77 175 l0 30
343 0 c332 0 344 1 365 20 29 27 29 88 1 192 -50 185 -176 296 -371 328 -63
10 -96 11 -153 3z m191 -188 c62 -27 95 -69 123 -152 12 -34 21 -65 21 -68 0
-3 -117 -5 -261 -5 l-261 0 7 33 c21 94 92 178 177 208 63 23 119 18 194 -16z"/>
<path d="M4220 3584 c-74 -9 -177 -37 -216 -60 -85 -48 -118 -120 -74 -164 26
-26 58 -25 128 4 123 52 303 61 360 19 42 -31 64 -78 66 -136 l1 -52 -151 -6
c-166 -7 -229 -18 -320 -59 -114 -51 -166 -126 -172 -251 -3 -62 0 -85 18
-127 42 -97 147 -165 279 -178 106 -12 251 43 316 118 l32 39 7 -50 c8 -65 39
-91 105 -91 26 0 56 7 67 15 43 29 45 54 42 401 l-3 329 -33 68 c-40 81 -96
127 -189 156 -62 20 -198 33 -263 25z m263 -590 c-2 -93 -19 -141 -70 -195
-55 -59 -121 -84 -196 -76 -159 19 -213 198 -85 277 58 36 184 59 298 56 l55
-1 -2 -61z"/>
<path d="M10730 3584 c-135 -24 -224 -67 -300 -143 -149 -149 -183 -402 -83
-611 32 -66 130 -167 194 -198 66 -32 192 -62 261 -62 75 0 188 25 256 57 209
98 315 374 238 618 -53 167 -160 270 -329 319 -58 17 -192 28 -237 20z m185
-189 c94 -46 144 -142 153 -291 11 -206 -85 -354 -242 -371 -105 -12 -213 61
-257 173 -31 80 -33 240 -5 328 27 81 93 151 166 177 66 23 114 19 185 -16z"/>
<path d="M13171 3575 c-76 -17 -161 -66 -206 -117 -17 -21 -35 -38 -38 -38 -4
0 -7 19 -7 43 -1 66 -44 107 -115 107 -43 0 -90 -22 -105 -49 -6 -13 -10 -230
-10 -628 0 -668 -3 -635 60 -668 37 -19 73 -19 110 0 58 30 60 39 60 282 0
123 3 223 6 223 3 0 29 -21 57 -46 62 -55 103 -77 188 -99 122 -32 255 2 346
88 68 64 97 115 129 227 24 84 26 104 21 204 -9 177 -57 298 -154 386 -90 82
-216 113 -342 85z m76 -160 c62 -18 121 -78 149 -151 15 -40 19 -75 19 -189 0
-125 -2 -145 -23 -190 -55 -120 -159 -169 -286 -134 -52 14 -119 79 -145 138
-67 157 -34 412 63 486 29 22 117 53 157 54 8 1 38 -6 66 -14z"/>
<path d="M5020 3555 c-50 -27 -51 -36 -48 -396 l3 -334 33 -67 c52 -106 140
-166 269 -184 107 -14 251 42 324 124 l39 45 0 -36 c0 -78 42 -117 124 -117
36 0 52 6 78 29 l33 29 3 419 c2 404 2 419 -18 451 -23 37 -54 52 -112 52 -32
0 -47 -7 -74 -34 l-34 -34 0 -282 c0 -195 -4 -295 -12 -324 -19 -62 -91 -130
-157 -150 -89 -26 -145 -15 -202 39 -57 53 -59 66 -59 390 0 326 -4 351 -59
379 -37 19 -97 20 -131 1z"/>
<path d="M6925 3558 c-56 -30 -55 -17 -55 -481 l0 -429 29 -29 c24 -24 38 -29
76 -29 56 0 97 20 113 55 9 19 12 139 12 435 0 440 -1 450 -51 476 -33 17 -96
18 -124 2z"/>
<path d="M8133 3560 c-53 -21 -54 -30 -51 -401 l3 -344 28 -58 c50 -101 122
-153 245 -178 112 -23 252 21 334 106 24 25 46 45 51 45 4 0 7 -18 7 -41 0
-60 42 -99 105 -99 52 0 99 21 115 49 15 29 14 842 -2 876 -24 54 -115 72
-175 35 -18 -11 -35 -30 -38 -42 -2 -13 -6 -151 -7 -308 l-3 -285 -28 -53
c-33 -62 -88 -106 -157 -122 -100 -24 -178 10 -222 99 l-28 55 0 304 0 304
-34 34 c-29 29 -41 34 -77 33 -24 0 -54 -4 -66 -9z"/>
<path d="M11580 3555 c-50 -27 -51 -36 -48 -395 l3 -335 29 -63 c49 -107 147
-173 279 -188 105 -12 247 43 318 125 l39 44 0 -44 c0 -47 19 -78 57 -98 32
-16 105 -13 132 5 49 35 51 55 51 476 0 354 -2 396 -18 428 -20 41 -53 60
-105 60 -41 0 -91 -24 -104 -49 -4 -9 -10 -151 -13 -316 -5 -284 -6 -302 -27
-341 -31 -58 -84 -101 -149 -120 -91 -26 -176 0 -220 66 -36 54 -44 129 -44
428 0 161 -4 271 -10 283 -24 44 -117 63 -170 34z"/>
</g>
</svg>
